<mxfile host="app.diagrams.net" modified="2023-06-09T19:17:46.703Z" agent="Mozilla/5.0 (Macintosh; Intel Mac OS X 10_15_7) AppleWebKit/537.36 (KHTML, like Gecko) Chrome/114.0.0.0 Safari/537.36" etag="YDeSvbaWL3OtrQZg1Qh2" version="21.3.7" type="github">
  <diagram name="Page-1" id="P2r8PQwHnI45jQx_KM-w">
    <mxGraphModel dx="1207" dy="815" grid="1" gridSize="10" guides="1" tooltips="1" connect="1" arrows="1" fold="1" page="1" pageScale="1" pageWidth="827" pageHeight="1169" math="0" shadow="0">
      <root>
        <mxCell id="0" />
        <mxCell id="1" parent="0" />
        <mxCell id="yFn4UZGsjGsi2Lj1Uw5x-5" style="edgeStyle=orthogonalEdgeStyle;rounded=0;orthogonalLoop=1;jettySize=auto;html=1;exitX=1;exitY=0.5;exitDx=0;exitDy=0;exitPerimeter=0;entryX=0;entryY=0.5;entryDx=0;entryDy=0;" edge="1" parent="1" source="yFn4UZGsjGsi2Lj1Uw5x-1" target="yFn4UZGsjGsi2Lj1Uw5x-2">
          <mxGeometry relative="1" as="geometry" />
        </mxCell>
        <mxCell id="yFn4UZGsjGsi2Lj1Uw5x-1" value="MongoDB" style="shape=cylinder3;whiteSpace=wrap;html=1;boundedLbl=1;backgroundOutline=1;size=15;fillColor=#ffe6cc;strokeColor=#d79b00;" vertex="1" parent="1">
          <mxGeometry x="20" y="400" width="160" height="160" as="geometry" />
        </mxCell>
        <mxCell id="yFn4UZGsjGsi2Lj1Uw5x-6" style="edgeStyle=orthogonalEdgeStyle;rounded=0;orthogonalLoop=1;jettySize=auto;html=1;exitX=1;exitY=0.5;exitDx=0;exitDy=0;" edge="1" parent="1" source="yFn4UZGsjGsi2Lj1Uw5x-2" target="yFn4UZGsjGsi2Lj1Uw5x-4">
          <mxGeometry relative="1" as="geometry" />
        </mxCell>
        <mxCell id="yFn4UZGsjGsi2Lj1Uw5x-8" style="edgeStyle=orthogonalEdgeStyle;rounded=0;orthogonalLoop=1;jettySize=auto;html=1;exitX=0;exitY=0.5;exitDx=0;exitDy=0;" edge="1" parent="1" source="yFn4UZGsjGsi2Lj1Uw5x-2">
          <mxGeometry relative="1" as="geometry">
            <mxPoint x="180" y="480" as="targetPoint" />
          </mxGeometry>
        </mxCell>
        <mxCell id="yFn4UZGsjGsi2Lj1Uw5x-14" style="edgeStyle=orthogonalEdgeStyle;rounded=0;orthogonalLoop=1;jettySize=auto;html=1;exitX=0.5;exitY=0;exitDx=0;exitDy=0;entryX=0.5;entryY=1;entryDx=0;entryDy=0;" edge="1" parent="1" source="yFn4UZGsjGsi2Lj1Uw5x-2" target="yFn4UZGsjGsi2Lj1Uw5x-11">
          <mxGeometry relative="1" as="geometry" />
        </mxCell>
        <mxCell id="yFn4UZGsjGsi2Lj1Uw5x-15" style="edgeStyle=orthogonalEdgeStyle;rounded=0;orthogonalLoop=1;jettySize=auto;html=1;exitX=0.5;exitY=0;exitDx=0;exitDy=0;entryX=0.5;entryY=1;entryDx=0;entryDy=0;" edge="1" parent="1" source="yFn4UZGsjGsi2Lj1Uw5x-2" target="yFn4UZGsjGsi2Lj1Uw5x-9">
          <mxGeometry relative="1" as="geometry" />
        </mxCell>
        <mxCell id="yFn4UZGsjGsi2Lj1Uw5x-16" style="edgeStyle=orthogonalEdgeStyle;rounded=0;orthogonalLoop=1;jettySize=auto;html=1;exitX=0.5;exitY=1;exitDx=0;exitDy=0;entryX=0.5;entryY=0;entryDx=0;entryDy=0;" edge="1" parent="1" source="yFn4UZGsjGsi2Lj1Uw5x-2" target="yFn4UZGsjGsi2Lj1Uw5x-12">
          <mxGeometry relative="1" as="geometry" />
        </mxCell>
        <mxCell id="yFn4UZGsjGsi2Lj1Uw5x-17" style="edgeStyle=orthogonalEdgeStyle;rounded=0;orthogonalLoop=1;jettySize=auto;html=1;exitX=0.5;exitY=1;exitDx=0;exitDy=0;entryX=0.5;entryY=0;entryDx=0;entryDy=0;" edge="1" parent="1" source="yFn4UZGsjGsi2Lj1Uw5x-2" target="yFn4UZGsjGsi2Lj1Uw5x-13">
          <mxGeometry relative="1" as="geometry" />
        </mxCell>
        <mxCell id="yFn4UZGsjGsi2Lj1Uw5x-2" value="Backend" style="whiteSpace=wrap;html=1;aspect=fixed;fillColor=#f8cecc;strokeColor=#b85450;" vertex="1" parent="1">
          <mxGeometry x="480" y="400" width="160" height="160" as="geometry" />
        </mxCell>
        <mxCell id="yFn4UZGsjGsi2Lj1Uw5x-7" style="edgeStyle=orthogonalEdgeStyle;rounded=0;orthogonalLoop=1;jettySize=auto;html=1;exitX=0;exitY=0.5;exitDx=0;exitDy=0;entryX=1;entryY=0.5;entryDx=0;entryDy=0;" edge="1" parent="1" source="yFn4UZGsjGsi2Lj1Uw5x-4" target="yFn4UZGsjGsi2Lj1Uw5x-2">
          <mxGeometry relative="1" as="geometry" />
        </mxCell>
        <mxCell id="yFn4UZGsjGsi2Lj1Uw5x-4" value="Frontend" style="ellipse;whiteSpace=wrap;html=1;aspect=fixed;fillColor=#fff2cc;strokeColor=#d6b656;" vertex="1" parent="1">
          <mxGeometry x="920" y="400" width="160" height="160" as="geometry" />
        </mxCell>
        <mxCell id="yFn4UZGsjGsi2Lj1Uw5x-9" value="Models" style="rounded=0;whiteSpace=wrap;html=1;" vertex="1" parent="1">
          <mxGeometry x="320" y="320" width="120" height="40" as="geometry" />
        </mxCell>
        <mxCell id="yFn4UZGsjGsi2Lj1Uw5x-41" value="" style="edgeStyle=orthogonalEdgeStyle;rounded=0;orthogonalLoop=1;jettySize=auto;html=1;" edge="1" parent="1" source="yFn4UZGsjGsi2Lj1Uw5x-11" target="yFn4UZGsjGsi2Lj1Uw5x-40">
          <mxGeometry relative="1" as="geometry" />
        </mxCell>
        <mxCell id="yFn4UZGsjGsi2Lj1Uw5x-11" value="Services" style="rounded=0;whiteSpace=wrap;html=1;" vertex="1" parent="1">
          <mxGeometry x="600" y="320" width="120" height="40" as="geometry" />
        </mxCell>
        <mxCell id="yFn4UZGsjGsi2Lj1Uw5x-12" value="Routers" style="rounded=0;whiteSpace=wrap;html=1;" vertex="1" parent="1">
          <mxGeometry x="360" y="640" width="120" height="40" as="geometry" />
        </mxCell>
        <mxCell id="yFn4UZGsjGsi2Lj1Uw5x-13" value="Controllers" style="rounded=0;whiteSpace=wrap;html=1;" vertex="1" parent="1">
          <mxGeometry x="640" y="640" width="120" height="40" as="geometry" />
        </mxCell>
        <mxCell id="yFn4UZGsjGsi2Lj1Uw5x-20" value="" style="edgeStyle=orthogonalEdgeStyle;rounded=0;orthogonalLoop=1;jettySize=auto;html=1;" edge="1" parent="1" source="yFn4UZGsjGsi2Lj1Uw5x-18" target="yFn4UZGsjGsi2Lj1Uw5x-19">
          <mxGeometry relative="1" as="geometry" />
        </mxCell>
        <mxCell id="yFn4UZGsjGsi2Lj1Uw5x-18" value="users" style="rounded=0;whiteSpace=wrap;html=1;" vertex="1" parent="1">
          <mxGeometry x="160" width="120" height="40" as="geometry" />
        </mxCell>
        <mxCell id="yFn4UZGsjGsi2Lj1Uw5x-22" value="" style="edgeStyle=orthogonalEdgeStyle;rounded=0;orthogonalLoop=1;jettySize=auto;html=1;" edge="1" parent="1" source="yFn4UZGsjGsi2Lj1Uw5x-19" target="yFn4UZGsjGsi2Lj1Uw5x-21">
          <mxGeometry relative="1" as="geometry" />
        </mxCell>
        <mxCell id="yFn4UZGsjGsi2Lj1Uw5x-19" value="specialists" style="rounded=0;whiteSpace=wrap;html=1;" vertex="1" parent="1">
          <mxGeometry x="160" y="60" width="120" height="40" as="geometry" />
        </mxCell>
        <mxCell id="yFn4UZGsjGsi2Lj1Uw5x-24" value="" style="edgeStyle=orthogonalEdgeStyle;rounded=0;orthogonalLoop=1;jettySize=auto;html=1;" edge="1" parent="1" source="yFn4UZGsjGsi2Lj1Uw5x-21" target="yFn4UZGsjGsi2Lj1Uw5x-23">
          <mxGeometry relative="1" as="geometry" />
        </mxCell>
        <mxCell id="yFn4UZGsjGsi2Lj1Uw5x-21" value="credentials" style="rounded=0;whiteSpace=wrap;html=1;" vertex="1" parent="1">
          <mxGeometry x="160" y="120" width="120" height="40" as="geometry" />
        </mxCell>
        <mxCell id="yFn4UZGsjGsi2Lj1Uw5x-36" value="" style="edgeStyle=orthogonalEdgeStyle;rounded=0;orthogonalLoop=1;jettySize=auto;html=1;" edge="1" parent="1" source="yFn4UZGsjGsi2Lj1Uw5x-23" target="yFn4UZGsjGsi2Lj1Uw5x-35">
          <mxGeometry relative="1" as="geometry" />
        </mxCell>
        <mxCell id="yFn4UZGsjGsi2Lj1Uw5x-23" value="roles" style="rounded=0;whiteSpace=wrap;html=1;" vertex="1" parent="1">
          <mxGeometry x="160" y="180" width="120" height="40" as="geometry" />
        </mxCell>
        <mxCell id="yFn4UZGsjGsi2Lj1Uw5x-28" value="" style="edgeStyle=orthogonalEdgeStyle;rounded=0;orthogonalLoop=1;jettySize=auto;html=1;" edge="1" parent="1" source="yFn4UZGsjGsi2Lj1Uw5x-25" target="yFn4UZGsjGsi2Lj1Uw5x-27">
          <mxGeometry relative="1" as="geometry" />
        </mxCell>
        <mxCell id="yFn4UZGsjGsi2Lj1Uw5x-25" value="specializations" style="rounded=0;whiteSpace=wrap;html=1;" vertex="1" parent="1">
          <mxGeometry x="320" width="120" height="40" as="geometry" />
        </mxCell>
        <mxCell id="yFn4UZGsjGsi2Lj1Uw5x-30" value="" style="edgeStyle=orthogonalEdgeStyle;rounded=0;orthogonalLoop=1;jettySize=auto;html=1;" edge="1" parent="1" source="yFn4UZGsjGsi2Lj1Uw5x-27" target="yFn4UZGsjGsi2Lj1Uw5x-29">
          <mxGeometry relative="1" as="geometry" />
        </mxCell>
        <mxCell id="yFn4UZGsjGsi2Lj1Uw5x-27" value="appointments" style="rounded=0;whiteSpace=wrap;html=1;" vertex="1" parent="1">
          <mxGeometry x="320" y="60" width="120" height="40" as="geometry" />
        </mxCell>
        <mxCell id="yFn4UZGsjGsi2Lj1Uw5x-33" value="" style="edgeStyle=orthogonalEdgeStyle;rounded=0;orthogonalLoop=1;jettySize=auto;html=1;" edge="1" parent="1" source="yFn4UZGsjGsi2Lj1Uw5x-29" target="yFn4UZGsjGsi2Lj1Uw5x-32">
          <mxGeometry relative="1" as="geometry" />
        </mxCell>
        <mxCell id="yFn4UZGsjGsi2Lj1Uw5x-29" value="reviews" style="rounded=0;whiteSpace=wrap;html=1;" vertex="1" parent="1">
          <mxGeometry x="320" y="120" width="120" height="40" as="geometry" />
        </mxCell>
        <mxCell id="yFn4UZGsjGsi2Lj1Uw5x-32" value="scheludes" style="rounded=0;whiteSpace=wrap;html=1;" vertex="1" parent="1">
          <mxGeometry x="320" y="180" width="120" height="40" as="geometry" />
        </mxCell>
        <mxCell id="yFn4UZGsjGsi2Lj1Uw5x-35" value="payments" style="rounded=0;whiteSpace=wrap;html=1;" vertex="1" parent="1">
          <mxGeometry x="160" y="240" width="120" height="40" as="geometry" />
        </mxCell>
        <mxCell id="yFn4UZGsjGsi2Lj1Uw5x-38" value="sessions" style="rounded=0;whiteSpace=wrap;html=1;" vertex="1" parent="1">
          <mxGeometry x="320" y="240" width="120" height="40" as="geometry" />
        </mxCell>
        <mxCell id="yFn4UZGsjGsi2Lj1Uw5x-43" value="" style="edgeStyle=orthogonalEdgeStyle;rounded=0;orthogonalLoop=1;jettySize=auto;html=1;" edge="1" parent="1" source="yFn4UZGsjGsi2Lj1Uw5x-40" target="yFn4UZGsjGsi2Lj1Uw5x-42">
          <mxGeometry relative="1" as="geometry" />
        </mxCell>
        <mxCell id="yFn4UZGsjGsi2Lj1Uw5x-40" value="Auth Service" style="rounded=0;whiteSpace=wrap;html=1;" vertex="1" parent="1">
          <mxGeometry x="500" y="240" width="120" height="40" as="geometry" />
        </mxCell>
        <mxCell id="yFn4UZGsjGsi2Lj1Uw5x-45" value="" style="edgeStyle=orthogonalEdgeStyle;rounded=0;orthogonalLoop=1;jettySize=auto;html=1;" edge="1" parent="1" source="yFn4UZGsjGsi2Lj1Uw5x-42" target="yFn4UZGsjGsi2Lj1Uw5x-44">
          <mxGeometry relative="1" as="geometry" />
        </mxCell>
        <mxCell id="yFn4UZGsjGsi2Lj1Uw5x-42" value="User Service" style="rounded=0;whiteSpace=wrap;html=1;" vertex="1" parent="1">
          <mxGeometry x="500" y="180" width="120" height="40" as="geometry" />
        </mxCell>
        <mxCell id="yFn4UZGsjGsi2Lj1Uw5x-47" value="" style="edgeStyle=orthogonalEdgeStyle;rounded=0;orthogonalLoop=1;jettySize=auto;html=1;" edge="1" parent="1" source="yFn4UZGsjGsi2Lj1Uw5x-44" target="yFn4UZGsjGsi2Lj1Uw5x-46">
          <mxGeometry relative="1" as="geometry" />
        </mxCell>
        <mxCell id="yFn4UZGsjGsi2Lj1Uw5x-44" value="Specialist Service" style="rounded=0;whiteSpace=wrap;html=1;" vertex="1" parent="1">
          <mxGeometry x="500" y="120" width="120" height="40" as="geometry" />
        </mxCell>
        <mxCell id="yFn4UZGsjGsi2Lj1Uw5x-49" value="" style="edgeStyle=orthogonalEdgeStyle;rounded=0;orthogonalLoop=1;jettySize=auto;html=1;" edge="1" parent="1" source="yFn4UZGsjGsi2Lj1Uw5x-46" target="yFn4UZGsjGsi2Lj1Uw5x-48">
          <mxGeometry relative="1" as="geometry" />
        </mxCell>
        <mxCell id="yFn4UZGsjGsi2Lj1Uw5x-46" value="Specializations Service" style="rounded=0;whiteSpace=wrap;html=1;" vertex="1" parent="1">
          <mxGeometry x="500" y="60" width="120" height="40" as="geometry" />
        </mxCell>
        <mxCell id="yFn4UZGsjGsi2Lj1Uw5x-51" value="" style="edgeStyle=orthogonalEdgeStyle;rounded=0;orthogonalLoop=1;jettySize=auto;html=1;" edge="1" parent="1" source="yFn4UZGsjGsi2Lj1Uw5x-48" target="yFn4UZGsjGsi2Lj1Uw5x-50">
          <mxGeometry relative="1" as="geometry" />
        </mxCell>
        <mxCell id="yFn4UZGsjGsi2Lj1Uw5x-48" value="Appointments Service" style="rounded=0;whiteSpace=wrap;html=1;" vertex="1" parent="1">
          <mxGeometry x="500" width="120" height="40" as="geometry" />
        </mxCell>
        <mxCell id="yFn4UZGsjGsi2Lj1Uw5x-53" value="" style="edgeStyle=orthogonalEdgeStyle;rounded=0;orthogonalLoop=1;jettySize=auto;html=1;" edge="1" parent="1" source="yFn4UZGsjGsi2Lj1Uw5x-50" target="yFn4UZGsjGsi2Lj1Uw5x-52">
          <mxGeometry relative="1" as="geometry" />
        </mxCell>
        <mxCell id="yFn4UZGsjGsi2Lj1Uw5x-50" value="Review Service" style="rounded=0;whiteSpace=wrap;html=1;" vertex="1" parent="1">
          <mxGeometry x="640" width="120" height="40" as="geometry" />
        </mxCell>
        <mxCell id="yFn4UZGsjGsi2Lj1Uw5x-55" value="" style="edgeStyle=orthogonalEdgeStyle;rounded=0;orthogonalLoop=1;jettySize=auto;html=1;" edge="1" parent="1" source="yFn4UZGsjGsi2Lj1Uw5x-52" target="yFn4UZGsjGsi2Lj1Uw5x-54">
          <mxGeometry relative="1" as="geometry" />
        </mxCell>
        <mxCell id="yFn4UZGsjGsi2Lj1Uw5x-52" value="Sessions Service" style="rounded=0;whiteSpace=wrap;html=1;" vertex="1" parent="1">
          <mxGeometry x="640" y="60" width="120" height="40" as="geometry" />
        </mxCell>
        <mxCell id="yFn4UZGsjGsi2Lj1Uw5x-54" value="Scheludes Service" style="rounded=0;whiteSpace=wrap;html=1;" vertex="1" parent="1">
          <mxGeometry x="640" y="120" width="120" height="40" as="geometry" />
        </mxCell>
      </root>
    </mxGraphModel>
  </diagram>
</mxfile>
